<svg width="30" height="30" viewBox="0 0 30 30" fill="none" xmlns="http://www.w3.org/2000/svg">
<g id="link" clip-path="url(#clip0_23_11505)">
<path id="Vector" d="M11.2499 18.75L18.7499 11.25M13.7499 7.50002L14.3287 6.83002C15.5009 5.65793 17.0908 4.99952 18.7485 4.99963C20.4062 4.99975 21.996 5.65838 23.1681 6.83064C24.3401 8.0029 24.9986 9.59275 24.9984 11.2505C24.9983 12.9082 24.3397 14.4979 23.1674 15.67L22.4999 16.25M16.2499 22.5L15.7537 23.1675C14.5677 24.3403 12.9672 24.998 11.2993 24.998C9.63145 24.998 8.03087 24.3403 6.84493 23.1675C6.26038 22.5895 5.7963 21.9013 5.47957 21.1427C5.16284 20.3841 4.99976 19.5702 4.99976 18.7481C4.99976 17.9261 5.16284 17.1122 5.47957 16.3536C5.7963 15.595 6.26038 14.9068 6.84493 14.3288L7.49993 13.75" stroke="#343434" stroke-width="2" stroke-linecap="round" stroke-linejoin="round"/>
</g>
<defs>
<clipPath id="clip0_23_11505">
<rect width="30" height="30" fill="white"/>
</clipPath>
</defs>
</svg>
