<svg width="30" height="30" viewBox="0 0 30 30" fill="none" xmlns="http://www.w3.org/2000/svg">
<g id="link-off" clip-path="url(#clip0_23_11499)">
<path id="Vector" d="M11.25 18.75L15 15M17.5 12.5L18.75 11.25M13.75 7.5L14.3288 6.83C15.501 5.65791 17.0909 4.9995 18.7486 4.99962C20.4063 4.99974 21.996 5.65837 23.1681 6.83062C24.3402 8.00288 24.9986 9.59274 24.9985 11.2504C24.9984 12.9081 24.3398 14.4979 23.1675 15.67L22.5 16.25M3.75 3.75L26.25 26.25M16.25 22.5L15.7537 23.1675C14.5678 24.3402 12.9672 24.998 11.2994 24.998C9.63151 24.998 8.03094 24.3402 6.845 23.1675C6.26045 22.5895 5.79637 21.9013 5.47964 21.1427C5.16291 20.3841 4.99982 19.5702 4.99982 18.7481C4.99982 17.9261 5.16291 17.1122 5.47964 16.3536C5.79637 15.595 6.26045 14.9068 6.845 14.3288L7.5 13.75" stroke="#343434" stroke-width="2" stroke-linecap="round" stroke-linejoin="round"/>
</g>
<defs>
<clipPath id="clip0_23_11499">
<rect width="30" height="30" fill="white"/>
</clipPath>
</defs>
</svg>
