<svg width="20" height="18" viewBox="0 0 20 18" fill="none" xmlns="http://www.w3.org/2000/svg">
<path id="Vector" d="M17.2833 7.5652L13.7 2.31985C13.316 1.75781 12.8044 1.2988 12.2089 0.981933C11.6134 0.665062 10.9517 0.499722 10.28 0.5H7.08333C6.23835 0.50292 5.41401 0.766568 4.71868 1.25629C4.02335 1.746 3.48956 2.43887 3.1875 3.2438L1.46083 7.8882C1.01095 8.19979 0.64263 8.61891 0.388002 9.10902C0.133373 9.59912 0.000166984 10.1453 0 10.7L0 11.975C0.000684041 12.4647 0.166811 12.9391 0.470393 13.3185C0.773975 13.6978 1.19646 13.9588 1.66667 14.0575V14.525C1.66667 15.314 1.97396 16.0707 2.52094 16.6286C3.06792 17.1866 3.80979 17.5 4.58333 17.5C5.35688 17.5 6.09875 17.1866 6.64573 16.6286C7.19271 16.0707 7.5 15.314 7.5 14.525V14.1H12.5V14.525C12.5 15.314 12.8073 16.0707 13.3543 16.6286C13.9013 17.1866 14.6431 17.5 15.4167 17.5C16.1902 17.5 16.9321 17.1866 17.4791 16.6286C18.026 16.0707 18.3333 15.314 18.3333 14.525V14.0575C18.8035 13.9588 19.226 13.6978 19.5296 13.3185C19.8332 12.9391 19.9993 12.4647 20 11.975V11.55C19.9988 10.6827 19.738 9.83638 19.2526 9.1243C18.7671 8.41222 18.0801 7.86827 17.2833 7.5652ZM12.3333 3.2914L15.07 7.3H9.16667V2.2H10.28C10.6832 2.19956 11.0805 2.29858 11.438 2.48862C11.7955 2.67866 12.1027 2.95408 12.3333 3.2914ZM4.75 3.84645C4.93092 3.36411 5.25053 2.94879 5.66691 2.65498C6.0833 2.36117 6.57703 2.20257 7.08333 2.2H7.5V7.3H3.46167L4.75 3.84645ZM5.83333 14.525C5.83333 14.8632 5.70164 15.1875 5.46722 15.4266C5.2328 15.6657 4.91485 15.8 4.58333 15.8C4.25181 15.8 3.93387 15.6657 3.69945 15.4266C3.46503 15.1875 3.33333 14.8632 3.33333 14.525V14.1H5.83333V14.525ZM15.4167 15.8C15.0851 15.8 14.7672 15.6657 14.5328 15.4266C14.2984 15.1875 14.1667 14.8632 14.1667 14.525V14.1H16.6667V14.525C16.6667 14.8632 16.535 15.1875 16.3005 15.4266C16.0661 15.6657 15.7482 15.8 15.4167 15.8ZM18.3333 11.975C18.3333 12.0877 18.2894 12.1958 18.2113 12.2755C18.1332 12.3552 18.0272 12.4 17.9167 12.4H2.08333C1.97283 12.4 1.86685 12.3552 1.78871 12.2755C1.71057 12.1958 1.66667 12.0877 1.66667 11.975V10.7C1.66667 10.2491 1.84226 9.81673 2.15482 9.49792C2.46738 9.17911 2.89131 9 3.33333 9H15.8333C16.4964 9 17.1323 9.26866 17.6011 9.74688C18.0699 10.2251 18.3333 10.8737 18.3333 11.55V11.975Z" fill="#343434"/>
</svg>
