<svg width="22" height="18" viewBox="0 0 22 18" fill="none" xmlns="http://www.w3.org/2000/svg">
<path id="Vector" d="M18.4333 7.4955L18.425 7.4819L14.7725 2.1371C14.0717 1.112 12.9217 0.5 11.6967 0.5H7.6675C6.11917 0.5 4.71 1.49195 4.16083 2.96925L2.38583 7.7437C1.555 8.26815 1 9.20655 1 10.275V12.4C1 13.3376 1.7475 14.1 2.66667 14.1V14.95C2.66667 16.3559 3.78833 17.5 5.16667 17.5C6.545 17.5 7.66667 16.3559 7.66667 14.95V14.1H14.3333V14.95C14.3333 16.3559 15.455 17.5 16.8333 17.5C18.2117 17.5 19.3333 16.3559 19.3333 14.95V14.1C20.2525 14.1 21 13.3376 21 12.4V11.125C21 9.43775 19.9233 8.0021 18.4333 7.4955ZM6.83333 14.95C6.83333 15.8876 6.08583 16.65 5.16667 16.65C4.2475 16.65 3.5 15.8876 3.5 14.95V14.1H6.83333V14.95ZM18.5 14.95C18.5 15.8876 17.7525 16.65 16.8333 16.65C15.9142 16.65 15.1667 15.8876 15.1667 14.95V14.1H18.5V14.95ZM20.1667 12.4C20.1667 12.8684 19.7925 13.25 19.3333 13.25H2.66667C2.2075 13.25 1.83333 12.8684 1.83333 12.4V10.275C1.83333 9.1037 2.76833 8.15 3.91667 8.15H5.58333C5.81333 8.15 6 7.9596 6 7.725C6 7.4904 5.81333 7.3 5.58333 7.3H3.91667C3.75 7.3 3.58583 7.31445 3.42667 7.3425L4.93917 3.271C5.36667 2.1218 6.4625 1.35085 7.66667 1.35085H11.6958C12.6492 1.35085 13.5433 1.82685 14.0883 2.625L17.285 7.3017H14.75C14.52 7.3017 14.3333 7.49125 14.3333 7.72585C14.3333 7.96045 14.52 8.15085 14.75 8.15085H17.25C18.8583 8.15085 20.1667 9.48535 20.1667 11.1259V12.4ZM12.5417 7.86185C12.7242 8.20865 12.705 8.6277 12.4917 8.9558L10.0833 12.2309C10.0017 12.3422 9.87583 12.4008 9.75 12.4008C9.66333 12.4008 9.57583 12.3728 9.5 12.3159C9.31583 12.1748 9.27917 11.9087 9.41667 11.7209L11.8108 8.4662C11.86 8.38885 11.825 8.29875 11.8067 8.26475C11.7892 8.23075 11.735 8.15085 11.62 8.15085H8.72417C8.38583 8.15085 8.07667 7.9919 7.875 7.7148C7.67333 7.4377 7.61417 7.09005 7.7125 6.7594C7.72667 6.71265 10.2483 3.22255 10.2483 3.22255C10.3858 3.03385 10.6458 2.99305 10.8308 3.13415C11.0158 3.27355 11.055 3.54045 10.9175 3.7283L8.5 7.0603C8.49667 7.12915 8.52417 7.18015 8.54417 7.2082C8.56917 7.24305 8.62583 7.3 8.72417 7.3H11.62C12.0058 7.3 12.3583 7.51505 12.5408 7.86185H12.5417Z" fill="#343434" stroke="#343434"/>
</svg>
