<svg width="22" height="22" viewBox="0 0 22 22" fill="none" xmlns="http://www.w3.org/2000/svg">
<g id="file-certificate">
<g id="Path">
<path d="M12.834 2.75V6.41667C12.834 6.92293 13.2444 7.33333 13.7507 7.33333H17.4173" stroke="black" stroke-linecap="round" stroke-linejoin="round"/>
<path d="M12.834 2.75V6.41667C12.834 6.92293 13.2444 7.33333 13.7507 7.33333H17.4173" stroke="white" stroke-opacity="0.2" stroke-linecap="round" stroke-linejoin="round"/>
</g>
<g id="Path_2">
<path d="M4.58398 7.33333V4.58333C4.58398 3.57081 5.4048 2.75 6.41732 2.75H12.834L17.4173 7.33333V17.4167C17.4173 18.4292 16.5965 19.25 15.584 19.25H11.0007" stroke="black" stroke-linecap="round" stroke-linejoin="round"/>
<path d="M4.58398 7.33333V4.58333C4.58398 3.57081 5.4048 2.75 6.41732 2.75H12.834L17.4173 7.33333V17.4167C17.4173 18.4292 16.5965 19.25 15.584 19.25H11.0007" stroke="white" stroke-opacity="0.2" stroke-linecap="round" stroke-linejoin="round"/>
</g>
<g id="Oval">
<circle cx="5.5" cy="12.8335" r="2.75" stroke="black" stroke-linecap="round" stroke-linejoin="round"/>
<circle cx="5.5" cy="12.8335" r="2.75" stroke="white" stroke-opacity="0.2" stroke-linecap="round" stroke-linejoin="round"/>
</g>
<g id="Path_3">
<path d="M4.125 15.5835L2.75 20.1668L5.5 18.7918L8.25 20.1668L6.875 15.5835" stroke="black" stroke-linecap="round" stroke-linejoin="round"/>
<path d="M4.125 15.5835L2.75 20.1668L5.5 18.7918L8.25 20.1668L6.875 15.5835" stroke="white" stroke-opacity="0.2" stroke-linecap="round" stroke-linejoin="round"/>
</g>
</g>
</svg>
