<svg width="22" height="22" viewBox="0 0 22 22" fill="none" xmlns="http://www.w3.org/2000/svg">
<g id="files">
<g id="Path">
<path d="M13.75 2.75V6.41667C13.75 6.92293 14.1604 7.33333 14.6667 7.33333H18.3333" stroke="black" stroke-linecap="round" stroke-linejoin="round"/>
<path d="M13.75 2.75V6.41667C13.75 6.92293 14.1604 7.33333 14.6667 7.33333H18.3333" stroke="white" stroke-opacity="0.2" stroke-linecap="round" stroke-linejoin="round"/>
</g>
<g id="Path_2">
<path fill-rule="evenodd" clip-rule="evenodd" d="M16.5 15.5833H10.0833C9.07081 15.5833 8.25 14.7625 8.25 13.75V4.58333C8.25 3.57081 9.07081 2.75 10.0833 2.75H13.75L18.3333 7.33333V13.75C18.3333 14.7625 17.5125 15.5833 16.5 15.5833Z" stroke="black" stroke-linecap="round" stroke-linejoin="round"/>
<path fill-rule="evenodd" clip-rule="evenodd" d="M16.5 15.5833H10.0833C9.07081 15.5833 8.25 14.7625 8.25 13.75V4.58333C8.25 3.57081 9.07081 2.75 10.0833 2.75H13.75L18.3333 7.33333V13.75C18.3333 14.7625 17.5125 15.5833 16.5 15.5833Z" stroke="white" stroke-opacity="0.2" stroke-linecap="round" stroke-linejoin="round"/>
</g>
<g id="Path_3">
<path d="M14.6673 15.5832V17.4165C14.6673 18.429 13.8465 19.2498 12.834 19.2498H6.41732C5.4048 19.2498 4.58398 18.429 4.58398 17.4165V8.24984C4.58398 7.23732 5.4048 6.4165 6.41732 6.4165H8.25065" stroke="black" stroke-linecap="round" stroke-linejoin="round"/>
<path d="M14.6673 15.5832V17.4165C14.6673 18.429 13.8465 19.2498 12.834 19.2498H6.41732C5.4048 19.2498 4.58398 18.429 4.58398 17.4165V8.24984C4.58398 7.23732 5.4048 6.4165 6.41732 6.4165H8.25065" stroke="white" stroke-opacity="0.2" stroke-linecap="round" stroke-linejoin="round"/>
</g>
</g>
</svg>
