<svg width="57" height="57" viewBox="0 0 57 57" fill="none" xmlns="http://www.w3.org/2000/svg">
<g id="users">
<g clip-path="url(#clip0_1548_14285)">
<g id="Vector">
<path d="M11.875 16.625C11.875 19.1446 12.8759 21.5609 14.6575 23.3425C16.4391 25.1241 18.8554 26.125 21.375 26.125C23.8946 26.125 26.3109 25.1241 28.0925 23.3425C29.8741 21.5609 30.875 19.1446 30.875 16.625C30.875 14.1054 29.8741 11.6891 28.0925 9.90749C26.3109 8.12589 23.8946 7.125 21.375 7.125C18.8554 7.125 16.4391 8.12589 14.6575 9.90749C12.8759 11.6891 11.875 14.1054 11.875 16.625Z" stroke="black" stroke-width="2.375" stroke-linecap="round" stroke-linejoin="round"/>
<path d="M11.875 16.625C11.875 19.1446 12.8759 21.5609 14.6575 23.3425C16.4391 25.1241 18.8554 26.125 21.375 26.125C23.8946 26.125 26.3109 25.1241 28.0925 23.3425C29.8741 21.5609 30.875 19.1446 30.875 16.625C30.875 14.1054 29.8741 11.6891 28.0925 9.90749C26.3109 8.12589 23.8946 7.125 21.375 7.125C18.8554 7.125 16.4391 8.12589 14.6575 9.90749C12.8759 11.6891 11.875 14.1054 11.875 16.625Z" stroke="black" stroke-opacity="0.25" stroke-width="2.375" stroke-linecap="round" stroke-linejoin="round"/>
</g>
<g id="Vector_2">
<path d="M7.125 49.875V45.125C7.125 42.6054 8.12589 40.1891 9.90749 38.4075C11.6891 36.6259 14.1054 35.625 16.625 35.625H26.125C28.6446 35.625 31.0609 36.6259 32.8425 38.4075C34.6241 40.1891 35.625 42.6054 35.625 45.125V49.875" stroke="black" stroke-width="2.375" stroke-linecap="round" stroke-linejoin="round"/>
<path d="M7.125 49.875V45.125C7.125 42.6054 8.12589 40.1891 9.90749 38.4075C11.6891 36.6259 14.1054 35.625 16.625 35.625H26.125C28.6446 35.625 31.0609 36.6259 32.8425 38.4075C34.6241 40.1891 35.625 42.6054 35.625 45.125V49.875" stroke="black" stroke-opacity="0.25" stroke-width="2.375" stroke-linecap="round" stroke-linejoin="round"/>
</g>
<g id="Vector_3">
<path d="M38 7.43359C40.0435 7.95681 41.8547 9.14526 43.1481 10.8116C44.4416 12.4779 45.1436 14.5273 45.1436 16.6367C45.1436 18.7461 44.4416 20.7955 43.1481 22.4619C41.8547 24.1282 40.0435 25.3166 38 25.8398" stroke="black" stroke-width="2.375" stroke-linecap="round" stroke-linejoin="round"/>
<path d="M38 7.43359C40.0435 7.95681 41.8547 9.14526 43.1481 10.8116C44.4416 12.4779 45.1436 14.5273 45.1436 16.6367C45.1436 18.7461 44.4416 20.7955 43.1481 22.4619C41.8547 24.1282 40.0435 25.3166 38 25.8398" stroke="black" stroke-opacity="0.25" stroke-width="2.375" stroke-linecap="round" stroke-linejoin="round"/>
</g>
<g id="Vector_4">
<path d="M49.875 49.8747V45.1247C49.8629 43.028 49.1575 40.9941 47.8688 39.3402C46.58 37.6862 44.7802 36.5051 42.75 35.981" stroke="black" stroke-width="2.375" stroke-linecap="round" stroke-linejoin="round"/>
<path d="M49.875 49.8747V45.1247C49.8629 43.028 49.1575 40.9941 47.8688 39.3402C46.58 37.6862 44.7802 36.5051 42.75 35.981" stroke="black" stroke-opacity="0.25" stroke-width="2.375" stroke-linecap="round" stroke-linejoin="round"/>
</g>
</g>
</g>
<defs>
<clipPath id="clip0_1548_14285">
<path d="M0 2C0 0.89543 0.895431 0 2 0H55C56.1046 0 57 0.895431 57 2V55C57 56.1046 56.1046 57 55 57H2C0.89543 57 0 56.1046 0 55V2Z" fill="white"/>
</clipPath>
</defs>
</svg>
