<svg width="24" height="24" viewBox="0 0 24 24" fill="none" xmlns="http://www.w3.org/2000/svg">
    <path fill-rule="evenodd" clip-rule="evenodd" d="M12 2.75C13.2147 2.75 14.4178 2.98925 15.54 3.4541C16.6622 3.91896 17.6821 4.60009 18.541 5.45898C19.3999 6.31788 20.081 7.33777 20.5459 8.45996C21.0108 9.58222 21.25 10.7853 21.25 12L21.2393 12.4551C21.1871 13.5143 20.9526 14.5581 20.5459 15.54C20.081 16.6622 19.3999 17.6821 18.541 18.541C17.6821 19.3999 16.6622 20.081 15.54 20.5459C14.4178 21.0108 13.2147 21.25 12 21.25C10.7853 21.25 9.58222 21.0108 8.45996 20.5459C7.33777 20.081 6.31788 19.3999 5.45898 18.541C4.60009 17.6821 3.91896 16.6622 3.4541 15.54C3.04738 14.5581 2.81292 13.5143 2.76074 12.4551L2.75 12C2.75 10.7853 2.98925 9.58222 3.4541 8.45996C3.91896 7.33777 4.60009 6.31788 5.45898 5.45898C6.31788 4.60009 7.33777 3.91896 8.45996 3.4541C9.58222 2.98925 10.7853 2.75 12 2.75ZM12 15.25C11.5858 15.25 11.25 15.5858 11.25 16V16.0098C11.25 16.424 11.5858 16.7598 12 16.7598C12.4142 16.7598 12.75 16.424 12.75 16.0098V16C12.75 15.5858 12.4142 15.25 12 15.25ZM12 8.25C11.5858 8.25 11.25 8.58579 11.25 9V13C11.25 13.4142 11.5858 13.75 12 13.75C12.4142 13.75 12.75 13.4142 12.75 13V9C12.75 8.58579 12.4142 8.25 12 8.25Z" fill="#E52335"/>
</svg>
