<svg width="95" height="16" viewBox="0 0 95 16" fill="none" xmlns="http://www.w3.org/2000/svg">
<path d="M0.782 16V0.0939989H6.634C7.79267 0.0939989 8.83033 0.295666 9.747 0.699C10.6637 1.095 11.386 1.68167 11.914 2.459C12.4493 3.23633 12.717 4.186 12.717 5.308C12.717 6.364 12.4823 7.266 12.013 8.014C11.5437 8.762 10.8837 9.334 10.033 9.73C9.18967 10.126 8.196 10.324 7.052 10.324H4.016V16H0.782ZM3.983 7.838H6.964C7.77067 7.838 8.43067 7.58133 8.944 7.068C9.45733 6.54733 9.714 5.90567 9.714 5.143C9.714 4.351 9.44267 3.724 8.9 3.262C8.35733 2.79267 7.69733 2.558 6.92 2.558H3.983V7.838ZM27.4756 16H24.1426L21.5576 9.873H18.3346V16H15.1336V0.0939989H21.8436C23.1122 0.0939989 24.1499 0.295666 24.9566 0.699C25.7632 1.10233 26.3572 1.66333 26.7386 2.382C27.1199 3.09333 27.3106 3.91467 27.3106 4.846C27.3106 5.682 27.1786 6.38967 26.9146 6.969C26.6579 7.541 26.3169 8.01767 25.8916 8.399C25.4736 8.78033 25.0152 9.092 24.5166 9.334L27.4756 16ZM21.2716 7.398C22.1296 7.398 22.8079 7.167 23.3066 6.705C23.8126 6.243 24.0656 5.649 24.0656 4.923C24.0656 4.18967 23.8236 3.61033 23.3396 3.185C22.8556 2.75967 22.2432 2.547 21.5026 2.547H18.3346V7.398H21.2716ZM30.4519 16V0.0939989H41.3749L41.3639 2.8H33.6749V6.661H40.3519V9.312H33.6529V13.261L41.4849 13.272V16H30.4519ZM54.9847 0.0939989H58.1967V16H55.3037L47.7467 5.055V16H44.5457V0.0939989H47.7247L54.9847 10.621V0.0939989ZM61.7547 16V0.0939989H72.6777L72.6667 2.8H64.9777V6.661H71.6547V9.312H64.9557V13.261L72.7877 13.272V16H61.7547ZM94.9769 0.0939989L90.2799 16H87.7169L84.7249 5.605L81.7109 16H79.1919L74.5059 0.0939989H77.6519L80.6109 10.599L83.5699 0.0939989H85.8909L88.8829 10.599L91.8419 0.0939989H94.9769Z" fill="white"/>
</svg>
