<svg width="25" height="25" viewBox="0 0 25 25" fill="none" xmlns="http://www.w3.org/2000/svg">
<path fill-rule="evenodd" clip-rule="evenodd" d="M24.2384 12.6574C24.2346 15.0218 23.5303 17.3321 22.2143 19.2964C20.8984 21.2608 19.0298 22.7912 16.8447 23.6942C14.6595 24.5973 12.2557 24.8326 9.93692 24.3704C7.61811 23.9082 5.48828 22.7692 3.81638 21.0973C2.14448 19.4254 1.00551 17.2956 0.543304 14.9768C0.0811021 12.658 0.316396 10.2542 1.21948 8.06906C2.12256 5.88389 3.65292 4.01535 5.61729 2.69939C7.58166 1.38343 9.89194 0.679087 12.2564 0.67531C13.8306 0.672651 15.3899 0.980759 16.8448 1.58197C18.2998 2.18318 19.6217 3.06568 20.7349 4.17885C21.848 5.29201 22.7305 6.61395 23.3317 8.06888C23.933 9.52381 24.2411 11.0831 24.2384 12.6574Z" fill="white"/>
</svg>
