<svg width="24" height="25" viewBox="0 0 24 25" fill="none" xmlns="http://www.w3.org/2000/svg">
<g clip-path="url(#clip0_16626_91762)">
<path d="M3.06 13.5005C3.30541 15.6944 4.34859 17.7216 5.99113 19.1965C7.63368 20.6714 9.76102 21.4912 11.9686 21.4999C14.1761 21.5087 16.3099 20.7058 17.964 19.2439C19.6182 17.7821 20.6774 15.7632 20.9402 13.5714C21.203 11.3795 20.651 9.16751 19.3893 7.35606C18.1276 5.54461 16.2441 4.26006 14.097 3.74673C11.95 3.23339 9.68916 3.52706 7.74451 4.5719C5.79987 5.61674 4.30706 7.33986 3.55 9.41355" stroke="#A88944" stroke-width="1.5" stroke-linecap="round" stroke-linejoin="round"/>
<path d="M3 4.5V9.5H8" stroke="#A88944" stroke-width="1.5" stroke-linecap="round" stroke-linejoin="round"/>
<path d="M11 12.5C11 12.7652 11.1054 13.0196 11.2929 13.2071C11.4804 13.3946 11.7348 13.5 12 13.5C12.2652 13.5 12.5196 13.3946 12.7071 13.2071C12.8946 13.0196 13 12.7652 13 12.5C13 12.2348 12.8946 11.9804 12.7071 11.7929C12.5196 11.6054 12.2652 11.5 12 11.5C11.7348 11.5 11.4804 11.6054 11.2929 11.7929C11.1054 11.9804 11 12.2348 11 12.5Z" stroke="#A88944" stroke-width="1.5" stroke-linecap="round" stroke-linejoin="round"/>
</g>
<defs>
<clipPath id="clip0_16626_91762">
<rect width="24" height="24" fill="white" transform="translate(0 0.5)"/>
</clipPath>
</defs>
</svg>
