<svg width="18" height="27" viewBox="0 0 18 27" fill="none" xmlns="http://www.w3.org/2000/svg">
<path fill-rule="evenodd" clip-rule="evenodd" d="M1.88231 17.2888C1.58282 17.5528 1.66717 17.7694 1.70454 17.8165L1.75125 17.8635C1.75125 17.8635 1.88231 17.9955 1.70454 18.1274C1.52677 18.2594 1.8356 18.0804 1.96665 17.9108L2.05099 18.0804C2.09406 17.9987 2.11953 17.9088 2.12573 17.8165C2.12573 17.6845 2.051 17.6845 2.09771 17.3829C2.14977 17.1374 2.27012 16.9119 2.4447 16.7327C2.26748 16.9276 2.08039 17.1131 1.88417 17.2885L1.88231 17.2888ZM10.3044 17.0816C10.295 17.1098 10.6132 17.0816 10.5852 17.1474C10.5758 17.1945 10.5008 17.2321 10.3324 17.3264L10.3417 17.4584C10.5032 17.4137 10.6722 17.4041 10.8377 17.4302C10.9501 17.5149 10.7533 17.6468 10.2854 17.6942L10.2948 17.7885C10.5662 17.7791 10.9031 17.8734 10.1731 17.9675L10.0887 18.0901C10.2054 18.0972 10.3213 18.1129 10.4357 18.1371C10.5104 18.2409 10.314 18.2315 10.1456 18.203L10.0802 18.2879C10.1947 18.3541 10.3014 18.4331 10.3983 18.5234C10.6231 18.74 10.1552 18.5704 9.82739 18.514C9.75266 18.5046 9.75266 18.6177 9.79937 18.6459C10.0353 18.7664 10.2634 18.9017 10.4824 19.051C10.6508 19.1924 10.5948 19.2962 10.7445 19.409C10.9129 19.5316 11.1281 19.5504 11.3248 19.673C11.5213 19.805 11.6523 20.0404 11.8586 20.1818C12.1581 20.3891 12.523 20.5966 12.8318 20.785C13.2343 21.0204 13.6833 21.2185 14.0671 21.4352C14.2865 21.5513 14.499 21.6803 14.7035 21.8214C14.8217 21.9239 14.9465 22.0183 15.0771 22.1042C14.7489 22.0902 14.4204 22.1284 14.104 22.2174C14.8818 22.7426 15.7425 23.1313 16.6493 23.367L17.2389 23.6404L17.0425 23.5933L17.0611 23.678L16.9301 23.6027V23.6971C16.8688 23.6523 16.803 23.6144 16.7336 23.5839C16.3866 23.4708 16.3968 23.4425 16.1816 23.4519C16.1443 23.4519 16.1069 23.4802 16.1723 23.5272C16.247 23.5931 16.4718 23.6885 16.4624 23.6968C16.4498 23.7102 16.4402 23.7263 16.4344 23.7438C16.4344 23.7533 16.3877 23.7344 16.3594 23.7156C16.1349 23.6025 15.6483 23.3106 15.5827 23.2821C15.3393 23.1501 15.1241 23.1125 14.9277 22.9993C14.4691 22.7447 14.4224 22.6601 14.3474 22.6695C14.1416 22.6601 14.0853 22.7165 14.0479 22.8203C14.0105 22.924 14.0105 23.0181 14.3754 23.2256C14.0759 23.1407 13.9355 23.2538 13.7765 23.0842C13.5827 22.837 13.4075 22.5756 13.2525 22.3021C13.0656 22.0475 12.8596 21.8403 12.7002 21.6613C12.5401 21.5199 12.1856 21.5857 12.3265 21.8309C12.4675 22.076 12.9349 22.7179 12.8871 22.924C12.5502 22.4622 12.073 21.4916 11.7735 21.2465C11.5009 21.0396 11.1886 20.8919 10.8564 20.8129C10.5849 20.728 10.3511 20.6433 10.1733 20.5869C9.85683 20.5203 9.5468 20.4257 9.24685 20.3041C8.88587 20.1189 8.55208 19.8843 8.25498 19.6069C8.22695 19.8423 8.37669 20.0404 8.35801 20.3041C8.26432 20.2383 8.17116 19.9837 8.08655 19.9278C8.07721 20.0316 8.06787 20.1918 8.04919 20.2953C8.00349 20.1887 7.93289 20.095 7.84339 20.0219C7.82315 20.1812 7.8169 20.342 7.82471 20.5025C7.74669 20.3713 7.64481 20.2562 7.52442 20.163C7.55245 20.2668 7.56179 20.5493 7.58982 20.653C7.51481 20.6154 7.44942 20.4364 7.37468 20.3985C7.37468 20.4928 7.32797 20.6812 7.33732 20.8132C7.26258 20.6812 7.26258 20.5493 7.18757 20.5022C7.09389 20.5775 7.01915 20.7189 6.92546 20.8038C6.94432 21.0898 6.9126 21.377 6.83177 21.6518C6.75832 21.8892 6.76489 22.1444 6.85046 22.3776C6.78506 22.3776 6.579 22.2456 6.51361 22.2456C6.54123 22.4589 6.60439 22.666 6.70045 22.8582C6.57873 22.8394 6.44767 22.7262 6.34491 22.6969C6.31032 22.8859 6.32645 23.0808 6.39163 23.2614C6.29291 23.1608 6.21919 23.0381 6.17649 22.9033C6.0828 23.1861 5.98964 23.5912 6.12977 23.8645C5.79292 23.8551 5.79292 23.7137 5.71792 23.5151C5.68372 23.3996 5.6295 23.2912 5.55777 23.1947C5.47342 23.4113 5.41737 23.7506 5.33329 23.9675C5.2396 24.0427 5.09947 24.1089 4.99644 24.2032C4.88266 24.3305 4.81658 24.4939 4.8096 24.665C4.98917 24.7818 5.14483 24.9321 5.26816 25.108C5.35056 25.2475 5.4076 25.4007 5.43659 25.5603C5.49032 25.7566 5.50304 25.962 5.47396 26.1635C5.42725 25.909 5.38988 25.9563 5.37093 25.8525C5.33356 25.6829 5.3429 25.5321 5.32421 25.5415C5.21184 25.6168 4.90302 25.5697 4.84696 25.4095C4.78277 25.166 4.64949 24.9466 4.46341 24.7782C4.38867 24.976 4.25761 25.2588 3.98615 25.2776C3.84045 25.2706 3.69468 25.2897 3.55562 25.334C3.45569 25.3684 3.36621 25.4281 3.29574 25.5073C3.22526 25.5865 3.17615 25.6826 3.1531 25.7864C3.14235 25.6837 3.15726 25.5799 3.19646 25.4845C3.23566 25.389 3.29792 25.305 3.37758 25.2399C3.48061 25.155 3.53773 25.0327 3.62074 24.9572C3.69103 24.8935 3.77951 24.8539 3.87351 24.844C4.18234 24.8346 4.3134 24.7591 4.30405 24.3446C4.07958 24.2787 3.73312 24.3728 3.69575 24.2032C3.6397 23.9772 3.64903 23.8828 3.51798 23.8922C3.42122 23.8951 3.32675 23.9225 3.24332 23.9719C3.15989 24.0214 3.09021 24.0912 3.04073 24.175C3.04073 23.8828 3.38772 23.7602 3.58337 23.8075C3.67875 23.8422 3.76745 23.8932 3.84549 23.9583C3.95067 24.0596 4.07997 24.1318 4.22092 24.1681C4.36187 24.2044 4.50972 24.2035 4.65025 24.1656C4.84069 24.1044 5.00684 23.9837 5.12461 23.821C5.24238 23.6583 5.30566 23.4621 5.30527 23.2608C5.34264 22.8367 5.29592 22.5824 5.34263 22.2147C5.37066 21.9792 5.48303 21.6965 5.50278 21.3855C5.51601 21.2779 5.50646 21.1687 5.47476 21.0651C5.31461 20.7729 4.91423 20.5562 4.77303 20.6597C4.44552 20.8764 4.16472 21.0839 4.39934 21.3949C4.51103 21.5042 4.63326 21.6021 4.76422 21.687C4.85791 21.7623 4.96068 21.8002 5.00739 21.8849C5.04031 21.9659 5.05926 22.052 5.06344 22.1394C5.10168 22.2266 5.1158 22.3227 5.10429 22.4173C5.09278 22.5119 5.05606 22.6017 4.99804 22.677C5.06344 22.3472 5.03541 22.2717 4.91369 22.1212C4.88567 22.0835 4.78264 22.0647 4.72686 21.9986C4.67107 21.9325 4.66146 21.8007 4.61448 21.7819C4.19328 21.5653 4.24079 21.4521 4.13723 21.3863C4.13723 21.5371 4.07183 21.49 4.12789 21.6973C4.15591 21.7822 4.16526 21.8386 4.12789 21.8763C4.08328 21.9391 4.06332 22.0162 4.07184 22.0929C4.02513 21.8575 3.91168 21.9317 3.91168 21.7725C3.90234 21.5465 3.893 21.4804 3.83695 21.4521C3.77361 21.5953 3.69522 21.7312 3.60312 21.8575C3.49366 21.9517 3.37447 22.0339 3.24759 22.1026C3.18629 22.1469 3.13588 22.2047 3.10021 22.2717C3.06454 22.3386 3.04455 22.4129 3.0418 22.4889C2.96706 22.3098 3.03246 22.1967 3.21957 22.0177C3.28496 21.9612 3.23825 21.7916 3.35997 21.6596C3.41602 21.5938 3.62208 21.49 3.67813 21.4145C3.75287 21.3013 3.87458 21.2449 3.9309 21.1505C3.8655 21.1505 3.70615 21.1788 3.57536 21.1976C3.50331 21.2116 3.42873 21.2028 3.36183 21.1724C3.29494 21.142 3.239 21.0916 3.20168 21.028C3.16431 20.9621 2.89285 20.7925 2.77114 21.2446C2.6964 20.7922 3.06128 20.8111 3.31379 20.8866C3.43034 20.9163 3.54935 20.9352 3.66932 20.943C3.77661 20.9694 3.88823 20.9726 3.99683 20.9524C4.26829 20.8487 4.43671 20.8111 4.54908 20.5662C4.45411 20.5602 4.36174 20.5325 4.27903 20.4851C4.19632 20.4378 4.12545 20.372 4.07184 20.2928C3.99483 20.1665 3.8929 20.0575 3.77235 19.9724C3.6943 19.8553 3.60662 19.745 3.51024 19.6426C3.3605 19.473 3.24813 19.3787 3.18273 19.3128C3.22183 19.1087 3.2912 18.9117 3.38853 18.7285C3.25747 18.7473 3.12641 18.7755 2.99536 18.7943C3.05141 18.6906 3.19181 18.6247 3.25747 18.4927C3.093 18.4722 2.92708 18.4659 2.76154 18.4739C2.94838 18.1159 3.50891 18.5115 3.7534 18.389C3.9592 18.2852 3.97788 18.1156 4.00617 17.9272C3.37918 18.0404 3.16404 17.7011 2.84588 17.72C2.81575 17.8577 2.73986 17.981 2.63074 18.0694C2.50903 18.192 2.28375 18.2307 2.18152 18.3804C2.12351 18.4719 2.07639 18.57 2.04112 18.6726C2.07801 18.45 2.16795 18.2398 2.30323 18.06C2.30323 18.06 2.481 17.5794 2.25653 17.796C2.02934 18.15 1.9119 18.564 1.91914 18.9854C1.82545 19.2776 1.80676 19.5413 2.02217 19.6921C1.8914 19.6865 1.76361 19.651 1.64848 19.5883C1.55848 19.5396 1.47955 19.4726 1.41672 19.3915C1.3539 19.3103 1.30855 19.2169 1.2836 19.1171C1.20685 18.8931 1.17192 18.6567 1.18058 18.4199C1.18058 18.4199 0.862414 18.4011 0.937151 17.8449C1.01169 17.3792 1.20481 16.9409 1.49767 16.5728C1.62494 16.4211 1.76945 16.2851 1.92821 16.1674C2.44283 15.7621 3.06048 15.5548 3.56576 15.2156C3.72997 15.1146 3.86794 14.9756 3.96827 14.8103C3.92749 14.2639 3.79462 13.7285 3.57536 13.2271C3.219 12.5221 2.78251 11.8612 2.27468 11.2577C1.97397 10.9155 1.70462 10.5467 1.46991 10.1556C1.26412 9.81641 1.30977 9.90108 1.30977 9.70325C1.30776 9.61516 1.31088 9.52702 1.31911 9.4393C1.47723 9.61062 1.64937 9.76823 1.83372 9.91049C1.90113 9.89204 1.96998 9.87944 2.03952 9.87285C2.03952 9.87285 1.94583 9.75029 1.84307 9.62772C1.72702 9.50327 1.62357 9.36748 1.53425 9.22238C1.36445 8.89328 1.27461 8.52829 1.27213 8.15743C1.26278 7.66742 1.40319 7.13038 1.42187 6.68741C1.4499 6.16918 1.45924 5.77352 1.45924 5.77352C1.48727 5.56628 1.56227 5.65095 1.63701 5.76411C1.7024 5.90549 1.75872 6.05629 1.81478 6.19767C1.93649 6.46162 2.0486 6.49925 2.08623 6.17885C2.17058 5.51924 2.00188 4.98219 1.99254 4.41666C1.96717 4.13932 2.03281 3.86125 2.17939 3.62506C2.25399 3.04169 2.38569 2.46718 2.57256 1.9099C2.82543 1.30578 3.04788 0.689198 3.23905 0.0625C3.5759 0.175661 3.62261 0.835278 3.37011 1.76825C3.63222 1.21239 3.83801 1.20379 3.96907 1.14627C4.23118 1.15567 4.1375 1.75884 4.01579 2.3526C3.9033 2.7839 3.72308 3.19433 3.48195 3.56835L3.54734 3.61538C3.77182 3.28558 4.0713 2.87084 4.16499 2.89906C4.38013 2.89906 4.55789 3.04044 4.53867 3.20064C4.42593 3.81919 4.22745 4.41872 3.94906 4.98165L4.00511 5.00047C4.2859 4.52928 4.59473 4.00164 4.70683 4.06749C4.74996 4.06431 4.79319 4.07206 4.83258 4.09003C4.87197 4.10801 4.90626 4.13563 4.93232 4.17037C4.95839 4.20512 4.9754 4.24589 4.98179 4.28895C4.98819 4.33202 4.98377 4.37602 4.96895 4.41693C4.82015 4.89943 4.62585 5.36647 4.38867 5.81169L4.44472 5.84931C4.59559 5.64823 4.75807 5.45626 4.93131 5.27437C4.97729 5.23872 5.03345 5.21892 5.09147 5.21792C5.27831 5.1897 5.09146 5.5195 4.86699 5.91516C4.74527 6.14122 4.44579 6.51834 4.34302 6.67854L4.39907 6.75406C4.67987 6.55623 5.17581 6.04742 5.21318 6.08505C5.27142 6.11292 5.32169 6.1552 5.35931 6.20794C5.39693 6.26068 5.42067 6.32216 5.42832 6.38663C5.40933 6.50657 5.36109 6.61989 5.28792 6.71644C5.13818 6.92368 4.85737 7.14059 4.62355 7.42309L4.69829 7.51743C5.04528 7.13118 5.49371 6.77288 5.60582 6.85782C5.86793 7.0191 5.75556 7.26315 5.58713 7.51743C5.47046 7.70036 5.33559 7.87084 5.18462 8.02625C5.17528 8.04507 5.21265 8.0827 5.25936 8.10179C5.36239 8.04534 5.46515 7.94051 5.65253 7.84724C5.69924 7.81902 5.79293 7.86606 5.8303 7.93218C5.89569 8.04535 5.81161 8.1112 5.72726 8.25258C5.72726 8.26199 5.78332 8.36574 5.802 8.34693C5.88635 8.28108 5.97977 8.19613 6.01714 8.22435C6.10121 8.2808 6.13885 8.33752 6.11083 8.42219C6.0669 8.51693 6.02935 8.61454 5.99845 8.71436C6.02648 8.75199 6.07319 8.78963 6.0828 8.752C6.12017 8.67673 6.21385 8.57298 6.27925 8.57298C6.30727 8.57298 6.34465 8.62002 6.3636 8.65792C6.40097 8.69555 6.30754 8.88397 6.2232 9.01595C6.19517 9.06299 6.16714 9.11029 6.14846 9.13851C6.12978 9.15733 6.19517 9.21377 6.19517 9.20437C6.26991 9.14792 6.34492 9.03476 6.39163 9.00654C6.42899 8.98772 6.44768 9.09148 6.44768 9.11971C6.41965 9.18556 6.30728 9.36484 6.24188 9.51563C6.17649 9.68524 6.5507 9.37425 6.48531 9.44037C6.28771 9.68361 6.10922 9.94199 5.95147 10.2131C5.8391 9.64869 5.46488 9.789 5.24975 10.4486C5.04395 11.0612 4.90275 12.0036 4.71591 12.861C4.56146 13.4918 4.35807 14.1094 4.1076 14.7081C4.173 14.7081 4.21063 14.7176 4.27602 14.7176C4.4986 14.1932 4.67716 13.6511 4.80986 13.0967C4.9967 12.2581 5.2404 10.0906 5.72699 10.0153C5.92345 9.94946 5.70831 10.8539 5.93279 10.4583C6.14417 10.0999 6.38859 9.76231 6.66281 9.45004C6.98269 9.14922 7.34543 8.89826 7.73902 8.70549C8.04751 8.5348 8.3663 8.38371 8.69353 8.25311C9.01949 8.08735 9.32963 7.89175 9.62 7.66877C9.7604 7.58383 9.81645 7.5935 9.70434 7.84778C9.5546 8.16818 9.21776 8.69582 9.67632 8.58293C10.4998 8.09292 10.8553 7.5841 11.5666 7.16935C11.9502 6.9433 12.306 6.9148 12.7646 6.73579C13.1496 6.53402 13.5502 6.36386 13.9625 6.22696C14.9263 5.96301 15.7874 5.68051 16.7513 5.41656C17.0321 5.3034 17.0321 5.68051 16.7886 5.93479C16.4331 6.26459 15.8902 6.40598 15.5253 6.54737C15.4316 6.585 15.516 6.68875 15.5346 6.69816C15.6 6.68875 16.3581 6.46269 16.6023 6.4342C16.8081 6.40598 16.7625 6.65085 16.6117 6.84895C16.339 7.17926 15.9737 7.419 15.5635 7.53679C15.1555 7.6618 14.7397 7.75941 14.3188 7.82897C14.1784 7.85719 13.8976 7.90422 13.7012 7.92331C13.6545 7.94212 13.7012 8.03647 13.6918 8.03647C14.2422 7.98133 14.795 7.95612 15.3481 7.96094C15.5082 7.97035 15.4978 8.05529 15.4418 8.2249C15.3626 8.38634 15.2468 8.52675 15.1037 8.6348C14.9607 8.74285 14.7944 8.8155 14.6183 8.84688C13.9353 9.01649 13.0742 9.09201 12.7747 9.1963C12.728 9.23393 12.756 9.36591 12.7934 9.35758C13.1404 9.33877 14.1878 9.23501 14.2718 9.25383C14.3525 9.2702 14.4245 9.31554 14.4745 9.38141C14.5244 9.44728 14.5489 9.52918 14.5433 9.61186C14.5153 9.71561 14.3832 9.76266 14.1963 9.84732C13.9226 9.93459 13.6402 9.99146 13.3542 10.0169C12.8769 10.0734 12.306 10.1019 12.0628 10.1207C11.9224 10.1489 11.9505 10.3088 12.0815 10.3088C12.5401 10.3465 13.2794 10.2239 13.5883 10.2618C13.738 10.2806 13.841 10.3561 13.8034 10.4032C13.6961 10.5055 13.5636 10.5771 13.4196 10.6104C13.126 10.6628 12.8286 10.6911 12.5305 10.6951C12.0439 10.7233 11.623 10.6951 11.3232 10.6951C11.2578 10.7045 11.2578 10.8365 11.3045 10.8564C11.8565 10.9413 12.7363 10.9507 12.9421 11.0354C12.9794 11.1106 13.0261 11.5066 12.6893 11.5442C12.1256 11.5283 11.5633 11.4811 11.0048 11.4028C10.8831 11.4216 10.855 11.5724 10.9487 11.591C11.4914 11.7041 12.6143 11.7522 12.6049 11.8737C12.5769 12.4202 11.6318 12.3355 11.0034 12.2694C10.8257 12.26 10.8166 12.4108 10.9847 12.439C11.2354 12.4655 11.483 12.516 11.7241 12.5898C11.8365 12.6557 11.7895 12.8349 11.6587 12.9008C11.5091 12.9583 11.3509 12.9902 11.1908 12.9951C11.004 13.014 11.0224 13.1564 11.2282 13.1459C11.6587 13.1083 11.6774 13.1647 11.6494 13.2591C11.6307 13.344 11.481 13.3817 11.3406 13.3817C11.2095 13.4099 11.2469 13.476 11.3125 13.5042C11.5557 13.5889 11.5653 13.7491 11.4062 13.7776C11.2853 13.7967 11.1635 13.8093 11.0413 13.8152C10.8545 13.834 10.9196 13.9096 11.06 13.9472C11.2938 13.9942 11.6206 14.1262 10.8355 14.2017C10.7045 14.2112 10.7325 14.2394 10.7795 14.2582C11.0008 14.3105 11.2169 14.383 11.4252 14.4748C11.6873 14.6727 10.9479 14.6539 10.7795 14.6727C10.9012 14.8046 11.4625 14.9931 11.4438 15.0968C11.1254 15.1035 10.8068 15.0941 10.4894 15.0686C10.583 15.1818 10.9199 15.3231 11.0413 15.4449C11.2015 15.6062 11.06 15.6145 10.929 15.6062C10.667 15.5481 10.4126 15.4595 10.1709 15.3422C10.4144 15.672 11.0518 16.2185 10.8726 16.2658C10.6718 16.1066 10.4477 15.9797 10.2083 15.8895L10.1429 15.9744C10.3957 16.1626 10.7699 16.4456 10.6201 16.455C10.3767 16.455 9.98381 16.4174 9.73931 16.3986C9.4772 16.4362 10.0863 16.5306 10.5254 16.5964C10.7592 16.634 10.9466 16.6434 10.9466 16.6908C11.059 16.8321 10.3663 16.898 10.3103 16.9735L10.3009 17.0867L10.3044 17.0816ZM1.45176 18.5516C1.43892 18.5825 1.43653 18.6167 1.44498 18.6491C1.45342 18.6814 1.47223 18.7101 1.49848 18.7306C1.49848 18.7306 1.49847 18.5986 1.58282 18.5516C1.66717 18.5046 1.45176 18.4667 1.45176 18.5516Z" fill="#A88944"/>
</svg>
