<svg width="21" height="20" viewBox="0 0 21 20" fill="none" xmlns="http://www.w3.org/2000/svg">
<g clip-path="url(#clip0_16959_14995)">
<path d="M8.83339 17.3153C8.10806 17.1508 7.41145 16.8786 6.76672 16.5078" stroke="#A88944" stroke-width="1.5" stroke-linecap="round" stroke-linejoin="round"/>
<path d="M12.1666 2.6875C13.8234 3.06589 15.3027 3.99558 16.3622 5.32434C17.4217 6.6531 17.9987 8.30221 17.9987 10.0017C17.9987 11.7011 17.4217 13.3502 16.3622 14.679C15.3027 16.0078 13.8234 16.9374 12.1666 17.3158" stroke="#A88944" stroke-width="1.5" stroke-linecap="round" stroke-linejoin="round"/>
<path d="M4.31584 14.2459C3.86126 13.5855 3.516 12.8562 3.29333 12.0859" stroke="#A88944" stroke-width="1.5" stroke-linecap="round" stroke-linejoin="round"/>
<path d="M3.10339 8.74896C3.23673 7.95729 3.49339 7.20729 3.85339 6.51979L3.99423 6.26562" stroke="#A88944" stroke-width="1.5" stroke-linecap="round" stroke-linejoin="round"/>
<path d="M6.25586 3.8175C7.03557 3.28075 7.91029 2.89726 8.83336 2.6875" stroke="#A88944" stroke-width="1.5" stroke-linecap="round" stroke-linejoin="round"/>
<path d="M10.5 6.66797V10.0013L13 12.5013" stroke="#A88944" stroke-width="1.5" stroke-linecap="round" stroke-linejoin="round"/>
</g>
<defs>
<clipPath id="clip0_16959_14995">
<rect x="0.5" width="20" height="20" rx="4" fill="white"/>
</clipPath>
</defs>
</svg>
